<?xml version="1.0" encoding="utf-8"?>
<!-- Generator: Adobe Illustrator 25.2.3, SVG Export Plug-In . SVG Version: 6.00 Build 0)  -->
<svg version="1.1"
	 id="svg5" inkscape:version="1.2 (dc2aedaf03, 2022-05-15)" sodipodi:docname="gangly_fan.svg" xmlns:inkscape="http://www.inkscape.org/namespaces/inkscape" xmlns:sodipodi="http://sodipodi.sourceforge.net/DTD/sodipodi-0.dtd" xmlns:svg="http://www.w3.org/2000/svg"
	 xmlns="http://www.w3.org/2000/svg" xmlns:xlink="http://www.w3.org/1999/xlink" x="0px" y="0px" viewBox="0 0 595.3 841.9"
	 style="enable-background:new 0 0 595.3 841.9;" xml:space="preserve">
<style type="text/css">
	.st0{fill:none;stroke:#FF0000;stroke-width:2.834645e-02;stroke-miterlimit:11.3386;}
</style>
<sodipodi:namedview  bordercolor="#000000" borderopacity="0.25" id="namedview7" inkscape:current-layer="layer2" inkscape:cx="44.143451" inkscape:cy="553.26458" inkscape:deskcolor="#d1d1d1" inkscape:document-units="mm" inkscape:pagecheckerboard="0" inkscape:pageopacity="0.0" inkscape:showpageshadow="2" inkscape:window-height="1057" inkscape:window-maximized="1" inkscape:window-width="1920" inkscape:window-x="-8" inkscape:window-y="-8" inkscape:zoom="4.7572176" pagecolor="#ffffff" showgrid="false" showguides="true">
	
		<sodipodi:guide  id="guide398" inkscape:color="rgb(0,134,229)" inkscape:label="" inkscape:locked="false" orientation="0,1" position="21.260188,232">
		</sodipodi:guide>
	
		<sodipodi:guide  id="guide1171" inkscape:color="rgb(0,134,229)" inkscape:label="" inkscape:locked="false" orientation="-1,0" position="66,266.96669">
		</sodipodi:guide>
</sodipodi:namedview>
<g id="layer2" transform="translate(0,133.87023)" inkscape:groupmode="layer" inkscape:label="bottom">
	<g id="g1463" transform="matrix(-1,0,0,1,147.36927,-3.5208325)" inkscape:label="mounting holes">
		<circle id="circle1453" inkscape:label="4" class="st0" cx="72.1" cy="284.4" r="4.8">
		</circle>
		<circle id="circle1455" inkscape:label="3" class="st0" cx="-225.8" cy="284.4" r="4.8">
		</circle>
		<circle id="circle1457" inkscape:label="2" class="st0" cx="72.1" cy="582.3" r="4.8">
		</circle>
		<circle id="circle1459" inkscape:label="1" class="st0" cx="-225.8" cy="582.3" r="4.8">
		</circle>
	</g>
	<path id="circle1451" inkscape:label="fan hole" class="st0" d="M224.2,265.4c31.8,0,63,9.3,89.7,26.6L295,311
		c-1.4,1.4-1.4,3.6,0,5l43.1,43.1c1.4,1.4,3.6,1.4,5,0l18.9-18.9c17.4,26.7,26.6,57.8,26.6,89.7c0,31.8-9.3,63-26.6,89.7l-18.9-18.9
		c-1.4-1.4-3.6-1.4-5,0L295,543.7c-1.4,1.4-1.4,3.6,0,5l18.9,18.9c-26.7,17.4-57.8,26.6-89.7,26.6c-31.8,0-63-9.2-89.7-26.6
		l18.9-18.9c1.4-1.4,1.4-3.6,0-5l-43.1-43.1c-1.4-1.4-3.6-1.4-5,0l-18.9,18.9c-17.4-26.7-26.6-57.8-26.6-89.7
		c0-31.8,9.3-63,26.6-89.7l18.9,18.9c1.4,1.4,3.6,1.4,5,0l43.1-43.1c1.4-1.4,1.4-3.6,0-5l-18.9-18.9
		C161.2,274.7,192.4,265.5,224.2,265.4z"/>
	<path id="rect1465" inkscape:label="perimeter" class="st0" d="M388.5,245.7H22.8c-12.5,0-22.7,10.2-22.7,22.7v323.1
		c0,12.5,10.2,22.7,22.7,22.7h365.7c12.5,0,22.7-10.2,22.7-22.7V268.4C411.2,255.9,401,245.7,388.5,245.7z"/>
</g>
<g id="layer1" inkscape:groupmode="layer" inkscape:label="top">
	<rect id="rect407" x="13.9" y="45" inkscape:label="switch" class="st0" width="36.5" height="53.5">
	</rect>
	<circle id="path238" inkscape:label="fan hole" class="st0" cx="224.2" cy="184.3" r="164.4">
	</circle>
	<g id="g674" transform="matrix(-1,0,0,1,147.36927,-3.5208316)" inkscape:label="mounting holes">
		<circle id="path417" inkscape:label="4" class="st0" cx="72.1" cy="38.8" r="4.8">
		</circle>
		<circle id="path417-1" inkscape:label="3" class="st0" cx="-225.8" cy="38.8" r="4.8">
		</circle>
		<circle id="path417-5" inkscape:label="2" class="st0" cx="72.1" cy="336.7" r="4.8">
		</circle>
		<circle id="path417-1-1" inkscape:label="1" class="st0" cx="-225.8" cy="336.7" r="4.8">
		</circle>
	</g>
	<path id="rect184" inkscape:label="perimeter" class="st0" d="M388.5,0.1H22.8C10.3,0.1,0.1,10.3,0.1,22.8V346
		c0,12.5,10.2,22.7,22.7,22.7h365.7c12.5,0,22.7-10.2,22.7-22.7V22.8C411.2,10.3,401,0.1,388.5,0.1z"/>
	<g id="text1913" transform="matrix(0,-1,-1,0,143.5125,-6.8791661)" inkscape:label="Gangly Fan">
		<path id="path964" d="M-310.5,102.4c2.2,0,4.5,0.9,6.8,2.7c0.5,0.5,0.7,1.2,0.7,2c0,1.6-0.9,3.8-2.7,6.6c-0.2,0.1-0.5,0.2-0.8,0.2
			c-0.7,0-2.1-0.3-4.1-0.9c-0.4-0.1-0.8-0.1-1-0.1h-0.3c-1.3,0-2.2,0.7-2.8,2.1c-0.1,0.2-0.2,0.6-0.3,1.1c0,0.9,0.6,1.8,1.7,2.5
			c0.4,0.2,0.8,0.3,1.1,0.3h0.2c0.9,0,1.9-0.6,3-1.7c1-0.8,1.8-1.3,2.6-1.3h0.1c0.6,0,1.1,0.3,1.6,0.9c0.7,1.4,1,2.8,1,4.3
			c0,1.7-0.4,3.4-1.3,5.1c-0.7,0.6-1.4,1-2,1h-0.2c-0.9,0-1.8-0.6-2.7-1.7c-0.2-0.5-0.4-1-0.6-1.7c0,0,0,0,0,0
			c-1.7,0.9-3.2,1.4-4.6,1.4c-3.2,0-5.5-2.6-6.9-7.7c-0.2-1-0.3-1.8-0.3-2.5v-0.4c0-3.5,1.8-6.7,5.4-9.7
			C-314.8,103.2-312.7,102.4-310.5,102.4L-310.5,102.4z M-320.3,112.6v0.3c0,0.2,0,0.2,0.1,0.3c0.1,0,0.4-0.6,0.9-1.8
			c0.5-1.1,1.1-2,1.9-2.8c0-0.1,0.6-0.7,1.7-1.7c1.2-0.9,2.1-1.4,2.7-1.6c0.7-0.3,1.8-0.6,3.1-0.8l0.2-0.1c0-0.2-0.5-0.3-1.5-0.4
			h-0.1c-2.2,0-4.6,1.4-7,4.1C-319.6,109.9-320.3,111.4-320.3,112.6L-320.3,112.6z M-312.5,120.4L-312.5,120.4
			c0,0.2,0.3,0.4,0.9,0.4c0.1,0,0.1,0,0.2,0c1.1,0,2.3-0.5,3.5-1.5c0.7-0.4,1-0.8,1-1.1v-0.1c0-0.2-0.1-0.3-0.4-0.3
			c-0.3,0-1,0.4-2.1,1.2c-0.5,0.4-1.5,0.8-3,1.2C-312.5,120.3-312.5,120.4-312.5,120.4L-312.5,120.4z"/>
		<path id="path966" d="M-291.6,102.3h0.4c0.8,0,1.8,0.6,2.9,1.9c1.3,1.9,1.9,2.9,1.9,2.9c3.4,5.3,5.1,10.5,5.1,15.6
			c0,0.9-0.1,1.5-0.3,1.6c-0.5,0.7-1.4,1-2.8,1h-0.4c-1,0-2.2-0.2-3.6-0.5c-0.4-0.2-0.7-0.6-1-1.2c-0.4-1.3-0.6-2.2-0.6-3
			c0,0-0.1-0.5-0.1-1.4c-0.5,0.2-1.2,0.3-2,0.3h-0.3c0,1.7-0.4,3.4-1.2,5c-0.5,0.7-1.2,1-2.2,1h-0.5c-1.1,0-2.8-0.4-4.9-1.1
			c-0.5-0.3-0.8-0.8-0.8-1.5v0c0-1.7,0.3-3.9,1-6.6c0.7-2.2,1.4-4,2.2-5.5c0.7-1.3,1.6-2.7,2.7-4.2c0.7-0.9,1.8-2.2,3.2-3.7
			C-292.5,102.5-292,102.3-291.6,102.3L-291.6,102.3z M-299.9,119.5l0,0.1h0c0.1,0,0.4-0.9,0.9-2.8c0.6-1.9,1.4-3.6,2.2-5.2l1-1.7
			c0.6-0.9,1.3-1.9,2.1-2.8c0.8-1,1.5-1.6,1.9-1.9c0.3-0.2,0.5-0.5,0.5-0.7c-0.1-0.3-0.3-0.4-0.6-0.4c-0.8,0-2.2,1.5-4.3,4.5
			c-1.3,1.9-2.3,4-3,6.2C-299.6,116.8-299.9,118.4-299.9,119.5L-299.9,119.5z M-292.3,115.8v0.2l0,0.2c1.1-0.2,1.7-0.4,1.7-0.8
			c0-0.2,0.1-0.4,0.1-0.6c-0.1-1-0.3-1.5-0.5-1.5c0,0-0.1,0-0.1,0c-0.4,0.2-0.7,0.7-0.9,1.4C-292.2,115.1-292.3,115.5-292.3,115.8
			L-292.3,115.8z M-291.1,116.8L-291.1,116.8c0,0.2,0.2,0.3,0.7,0.4c0.3,0,0.6-0.1,1-0.3c0.3-0.2,0.5-0.5,0.5-0.8
			c0-0.4-0.1-0.5-0.4-0.5c-0.2,0-0.3,0.1-0.6,0.4c-0.2,0.3-0.5,0.5-0.8,0.5C-290.9,116.6-291.1,116.7-291.1,116.8L-291.1,116.8z"/>
		<path id="path968" d="M-265.8,102.1c0.9,0,1.8,0.2,2.6,0.7c0.5,0.3,0.8,0.7,0.9,1.3c0.2,0.8,0.3,3,0.5,6.4
			c0.1,1.2,0.1,2.8,0.2,4.8c0,4.1-0.4,7.3-1.1,9.6c-0.3,0.5-0.8,0.8-1.5,0.8h-0.2c-1.2,0-2.5-0.5-4.1-1.4c-0.6-0.4-1.2-1-1.7-1.7
			c-0.9-1.4-1.8-3.6-2.7-6.7h0v0.1c0,2.3,0.2,4.7,0.6,7.3c0,0,0,0.2,0.1,0.5c0,0.6-0.3,1.1-1,1.3c-0.3,0.1-0.6,0.1-0.8,0.1
			c-2.5,0-4.1-0.3-4.6-0.8c-0.6-0.4-0.9-1.1-0.9-1.8c-0.5-4.6-0.7-8.5-0.7-11.7v-0.5c0-3.6,0.3-6,1-7.5c0.2-0.2,0.7-0.3,1.4-0.3
			c1.5,0,3.2,0.2,5.1,0.7c1,0.3,1.5,0.7,1.7,1c0.9,1.2,1.9,3.5,3,7h0v-0.1c0-1.3-0.2-3.2-0.5-5.7c0-0.2,0-0.5,0-0.8v-0.2
			c0-0.9,0.1-1.5,0.4-1.7C-267.5,102.3-266.7,102.1-265.8,102.1L-265.8,102.1z M-278.9,105.4c0.1,0.5,0.2,0.7,0.5,0.7
			c0.6-0.3,1.3-0.8,2.1-1.5c0.6-0.3,0.8-0.4,0.8-0.4c0-0.1-0.5-0.3-1.4-0.7l-0.4,0c-0.8,0-1.4,0.5-1.6,1.4
			C-278.9,105.1-278.9,105.3-278.9,105.4L-278.9,105.4z M-267.7,104.5c0,0.2,0.1,0.4,0.2,0.5h0.1c0.2,0,0.7-0.3,1.4-0.9
			c0.3-0.1,0.5-0.3,0.5-0.5v-0.1c-0.2-0.2-0.5-0.3-0.9-0.3c-0.6,0-1,0.3-1.3,1C-267.7,104.3-267.7,104.4-267.7,104.5L-267.7,104.5z"
			/>
		<path id="path970" d="M-248.9,102.4c2.2,0,4.5,0.9,6.8,2.7c0.5,0.5,0.7,1.2,0.7,2c0,1.6-0.9,3.8-2.7,6.6c-0.2,0.1-0.5,0.2-0.8,0.2
			c-0.7,0-2.1-0.3-4.1-0.9c-0.4-0.1-0.8-0.1-1-0.1h-0.3c-1.3,0-2.2,0.7-2.8,2.1c-0.1,0.2-0.2,0.6-0.3,1.1c0,0.9,0.6,1.8,1.7,2.5
			c0.4,0.2,0.8,0.3,1.1,0.3h0.2c0.9,0,1.9-0.6,3-1.7c1-0.8,1.8-1.3,2.6-1.3h0.1c0.6,0,1.1,0.3,1.6,0.9c0.7,1.4,1,2.8,1,4.3
			c0,1.7-0.4,3.4-1.3,5.1c-0.7,0.6-1.4,1-2,1h-0.2c-0.9,0-1.8-0.6-2.7-1.7c-0.2-0.5-0.4-1-0.6-1.7c0,0,0,0,0,0
			c-1.7,0.9-3.2,1.4-4.6,1.4c-3.2,0-5.5-2.6-6.9-7.7c-0.2-1-0.3-1.8-0.3-2.5v-0.4c0-3.5,1.8-6.7,5.4-9.7
			C-253.2,103.2-251.1,102.4-248.9,102.4L-248.9,102.4z M-258.7,112.6v0.3c0,0.2,0,0.2,0.1,0.3c0.1,0,0.4-0.6,0.9-1.8
			c0.5-1.1,1.1-2,1.9-2.8c0-0.1,0.6-0.7,1.7-1.7c1.2-0.9,2.1-1.4,2.7-1.6c0.7-0.3,1.8-0.6,3.1-0.8l0.2-0.1c0-0.2-0.5-0.3-1.5-0.4
			h-0.1c-2.2,0-4.6,1.4-7,4.1C-258,109.9-258.7,111.4-258.7,112.6L-258.7,112.6z M-250.9,120.4L-250.9,120.4c0,0.2,0.3,0.4,0.9,0.4
			c0.1,0,0.1,0,0.2,0c1.1,0,2.3-0.5,3.5-1.5c0.7-0.4,1-0.8,1-1.1v-0.1c0-0.2-0.1-0.3-0.4-0.3c-0.3,0-1,0.4-2.1,1.2
			c-0.5,0.4-1.5,0.8-3,1.2C-250.8,120.3-250.9,120.4-250.9,120.4L-250.9,120.4z"/>
		<path id="path972" d="M-237.6,102h0.5c1,0,2.3,0.3,3.8,1c0.7,0.4,1.1,0.8,1.1,1.1v0.2l-0.8,4.6c-0.3,2.2-0.5,4-0.5,5.4
			c0,2,0.3,3.3,0.9,4.1c0.3,0.4,0.7,0.6,1.2,0.6h0c0.1,0,0.8-0.1,2.2-0.3c0.4,0,0.6,0,0.8,0h0.6c1.4,0,2.1,0.5,2.4,1.4
			c0,0.1,0,0.2,0,0.3v0.3c0,1-0.9,1.9-2.7,2.8c-0.3,0.2-1.1,0.6-2.5,1.2c-2,0.8-3.7,1.3-5,1.3c-2.1,0-3.4-0.9-4.1-2.8
			c-0.3-0.4-0.5-2.1-0.8-5.1c0-1.1-0.1-1.9-0.1-2.5c0-4.1,0.5-8.4,1.5-13.1C-238.6,102.1-238.1,102-237.6,102L-237.6,102z
			 M-238.3,104.9c-0.3,1.2-0.2,1.5,0.2,1.1c0.4-0.4,0.9-0.7,1.6-1c0.7-0.2,1-0.5,1.1-0.8c0-0.4-0.3-0.7-1-0.8
			C-237.4,103.3-238,103.8-238.3,104.9L-238.3,104.9z M-231.8,120.3v0.1c0.2,0.2,0.5,0.4,1.1,0.4h0.4c1.7-0.1,2.6-0.4,2.6-0.8
			c-0.2-0.1-0.4-0.2-0.8-0.2C-230.7,119.9-231.8,120.1-231.8,120.3L-231.8,120.3z"/>
		<path id="path974" d="M-215.2,102.4c1.9,0,2.8,0.1,2.8,0.3c0.5,0.3,0.7,1.2,0.7,2.8v0.1c0,2-0.2,4.7-0.7,8.1c-0.2,1-0.5,1.6-0.9,2
			c-0.8,0.6-1.8,0.9-3.1,0.9v0c0,0,0,0.1,0,0.1c0.1,1.2,0.1,2.2,0.1,3.1v0.7c-0.1,3.1-0.2,4.7-0.4,4.7c-0.3,0.4-0.8,0.6-1.6,0.6
			c-1,0-2.1-0.4-3.4-1.2c-0.9-0.6-1.3-1.2-1.3-1.7c-0.1-0.4-0.1-0.9-0.1-1.4c0-1.1,0.1-3,0.3-5.7c-2.1-0.6-3.6-1.4-4.7-2.4
			c-0.6-0.7-1-1.4-1.2-1.9c-0.3-0.6-0.5-1.5-0.5-2.7c0-1.6,0.3-2.9,0.9-3.9c0.2-0.2,0.5-0.4,1-0.5c0.6-0.2,1.6-0.3,2.7-0.3h0.4
			c0.5,0,1,0.2,1.6,0.6c0.3,0.3,0.4,0.5,0.4,0.8v0.2c0,0.4-0.2,1.1-0.5,2.3c0,0.2-0.1,0.5-0.1,0.7c0,1.2,0.7,1.8,2.2,1.8
			c0.7,0,1-0.2,1-0.6c-0.2-2.2-0.4-3.7-0.4-4.5V105c0-1.3,0.4-2,1.1-2.3C-217.6,102.5-216.4,102.4-215.2,102.4L-215.2,102.4z
			 M-218.4,104.8c-0.2,0.8,0,1.2,0.5,1.1c0.5-0.1,0.9-0.3,1.3-0.6c0.4-0.3,0.9-0.5,1.5-0.5c0.6,0,0.9-0.2,0.9-0.6v0
			c0-0.3-0.2-0.4-0.8-0.5c-0.5,0-1.1,0-1.9-0.1C-217.6,103.5-218.1,103.9-218.4,104.8L-218.4,104.8z M-227.5,107.1
			c0.1,0.9,0.2,1.4,0.4,1.4v0c0.1-0.1,0.3-0.5,0.6-1c1-0.8,1.6-1.4,1.6-1.7v-0.1c0-0.2-0.2-0.4-0.5-0.4h-0.2c-0.9,0-1.5,0.5-1.8,1.5
			C-227.5,106.9-227.5,107-227.5,107.1L-227.5,107.1z M-220.7,111.8c0,0.1,0.1,0.2,0.3,0.3c0.2,0.1,0.4,0.1,0.5,0.1h0.3
			c0.4,0,0.8-0.2,1.1-0.5c0.4-0.4,0.6-0.8,0.6-1.2c0,0,0,0,0,0l0-0.2c0,0,0,0,0,0c0-0.3-0.1-0.4-0.1-0.4l0,0
			c-0.1-0.1-0.1-0.2-0.1-0.2c-0.1,0-0.2,0.2-0.4,0.5c-0.1,0.2-0.3,0.5-0.7,0.9c-0.4,0.3-0.8,0.5-1.3,0.6
			C-220.6,111.7-220.7,111.7-220.7,111.8L-220.7,111.8z"/>
		<path id="path976" d="M-193.6,101.9h1.2c2.8,0,4.4,0.1,4.8,0.3c1,0.5,1.6,1.4,1.6,2.8v0.4c0,1.3-0.4,3.1-1.2,5.5
			c-0.4,1-0.9,1.5-1.5,1.5c-1.9,0.1-3.5,0.2-4.8,0.2h-0.5c-0.9,0-1.7,0-2.4-0.1l0.6,1.7h0.1c2.2-0.6,4.2-1,5.8-1
			c0.3,0,0.6,0.2,0.8,0.7c0.1,0.2,0.1,0.5,0.1,0.9c0,1-0.2,2-0.7,2.7c-0.1,0.2-0.4,0.3-0.7,0.3c-0.9,0.2-1.9,0.3-2.9,0.3
			c-0.3,0-0.8,0-1.4-0.1c0.3,1.1,0.4,2.2,0.4,3.2v0.6c0,1.3-0.3,2.6-0.9,3.8c-0.4,0.6-0.8,0.8-1.3,0.8h-0.1c-0.5,0-1.1-0.3-1.7-0.9
			c-4.5-5.9-6.7-10.9-6.7-15c0-4,1.1-6.5,3.2-7.5C-200.3,102.3-197.5,101.9-193.6,101.9L-193.6,101.9z M-203.3,107.8L-203.3,107.8
			c0,0.4,0,0.5,0.1,0.5c0.1-0.1,0.4-0.6,0.8-1.5c0.5-0.8,1.2-1.4,2-1.7c1.6-0.7,4.6-1,9.1-1c0.9,0,1.3-0.1,1.4-0.2v-0.1
			c0-0.3-1.5-0.4-4.5-0.4c-4.2,0-6.8,0.5-7.7,1.4C-202.8,105.6-203.3,106.6-203.3,107.8L-203.3,107.8z M-194.9,115.3L-194.9,115.3
			c0,0.2,0.3,0.2,0.8,0.3h0.2c1.2,0,1.8-0.3,1.8-1c0-0.3-0.1-0.5-0.3-0.5h-0.1c-0.2,0.1-0.7,0.3-1.5,0.8
			C-194.6,115-194.9,115.2-194.9,115.3L-194.9,115.3z"/>
		<path id="path978" d="M-177.6,102.3h0.4c0.8,0,1.8,0.6,2.9,1.9c1.3,1.9,1.9,2.9,1.9,2.9c3.4,5.3,5.1,10.5,5.1,15.6
			c0,0.9-0.1,1.5-0.3,1.6c-0.5,0.7-1.4,1-2.8,1h-0.4c-1,0-2.2-0.2-3.6-0.5c-0.4-0.2-0.7-0.6-1-1.2c-0.4-1.3-0.6-2.2-0.6-3
			c0,0-0.1-0.5-0.1-1.4c-0.5,0.2-1.2,0.3-2,0.3h-0.3c0,1.7-0.4,3.4-1.2,5c-0.5,0.7-1.2,1-2.2,1h-0.5c-1.1,0-2.8-0.4-4.9-1.1
			c-0.5-0.3-0.8-0.8-0.8-1.5v0c0-1.7,0.3-3.9,1-6.6c0.7-2.2,1.4-4,2.2-5.5c0.7-1.3,1.6-2.7,2.7-4.2c0.7-0.9,1.8-2.2,3.2-3.7
			C-178.5,102.5-178,102.3-177.6,102.3L-177.6,102.3z M-185.9,119.5l0,0.1h0c0.1,0,0.4-0.9,0.9-2.8c0.6-1.9,1.4-3.6,2.2-5.2l1-1.7
			c0.6-0.9,1.3-1.9,2.1-2.8c0.8-1,1.5-1.6,1.9-1.9c0.3-0.2,0.5-0.5,0.5-0.7c-0.1-0.3-0.3-0.4-0.6-0.4c-0.8,0-2.2,1.5-4.3,4.5
			c-1.3,1.9-2.3,4-3,6.2C-185.6,116.8-185.9,118.4-185.9,119.5L-185.9,119.5z M-178.3,115.8v0.2l0,0.2c1.1-0.2,1.7-0.4,1.7-0.8
			c0-0.2,0.1-0.4,0.1-0.6c-0.1-1-0.3-1.5-0.5-1.5c0,0-0.1,0-0.1,0c-0.4,0.2-0.7,0.7-0.9,1.4C-178.2,115.1-178.3,115.5-178.3,115.8
			L-178.3,115.8z M-177.1,116.8L-177.1,116.8c0,0.2,0.2,0.3,0.7,0.4c0.3,0,0.6-0.1,1-0.3c0.3-0.2,0.5-0.5,0.5-0.8
			c0-0.4-0.1-0.5-0.4-0.5c-0.2,0-0.3,0.1-0.6,0.4c-0.2,0.3-0.5,0.5-0.8,0.5C-176.9,116.6-177.1,116.7-177.1,116.8L-177.1,116.8z"/>
		<path id="path980" d="M-151.8,102.1c0.9,0,1.8,0.2,2.6,0.7c0.5,0.3,0.8,0.7,0.9,1.3c0.2,0.8,0.3,3,0.5,6.4
			c0.1,1.2,0.1,2.8,0.2,4.8c0,4.1-0.4,7.3-1.1,9.6c-0.3,0.5-0.8,0.8-1.5,0.8h-0.2c-1.2,0-2.5-0.5-4.1-1.4c-0.6-0.4-1.2-1-1.7-1.7
			c-0.9-1.4-1.8-3.6-2.7-6.7h0v0.1c0,2.3,0.2,4.7,0.6,7.3c0,0,0,0.2,0.1,0.5c0,0.6-0.3,1.1-1,1.3c-0.3,0.1-0.6,0.1-0.8,0.1
			c-2.5,0-4.1-0.3-4.6-0.8c-0.6-0.4-0.9-1.1-0.9-1.8c-0.5-4.6-0.7-8.5-0.7-11.7v-0.5c0-3.6,0.3-6,1-7.5c0.2-0.2,0.7-0.3,1.4-0.3
			c1.5,0,3.2,0.2,5.1,0.7c1,0.3,1.5,0.7,1.7,1c0.9,1.2,1.9,3.5,3,7h0v-0.1c0-1.3-0.2-3.2-0.5-5.7c0-0.2,0-0.5,0-0.8v-0.2
			c0-0.9,0.1-1.5,0.4-1.7C-153.5,102.3-152.7,102.1-151.8,102.1L-151.8,102.1z M-164.9,105.4c0.1,0.5,0.2,0.7,0.5,0.7
			c0.6-0.3,1.3-0.8,2.1-1.5c0.6-0.3,0.8-0.4,0.8-0.4c0-0.1-0.5-0.3-1.4-0.7l-0.4,0c-0.8,0-1.4,0.5-1.6,1.4
			C-164.9,105.1-164.9,105.3-164.9,105.4L-164.9,105.4z M-153.7,104.5c0,0.2,0.1,0.4,0.2,0.5h0.1c0.2,0,0.7-0.3,1.4-0.9
			c0.3-0.1,0.5-0.3,0.5-0.5v-0.1c-0.2-0.2-0.5-0.3-0.9-0.3c-0.6,0-1,0.3-1.3,1C-153.7,104.3-153.7,104.4-153.7,104.5L-153.7,104.5z"
			/>
	</g>
</g>
</svg>
